<?xml version="1.0" encoding="utf-8"?>
<!-- Generator: Adobe Illustrator 19.2.1, SVG Export Plug-In . SVG Version: 6.00 Build 0)  -->
<svg version="1.1" id="layer" xmlns="http://www.w3.org/2000/svg" xmlns:xlink="http://www.w3.org/1999/xlink" x="0px" y="0px"
	 viewBox="0 0 652 652" style="enable-background:new 0 0 652 652;" xml:space="preserve">
<style type="text/css">
	.st0{fill:#580F8B;}
</style>
<path id="Fill-1" class="st0" d="M246.2,250.7c0.1-0.1,0.1-0.2,0-0.3c-0.2-0.3-0.6-0.8-1.5-2.1c-1.1-1.6-7.9-11-16.7-19
	c-8.8-8-35.6-30.7-78.1-30.7c-44.3,0-74.3,24.2-89.8,41.4c-15.1,16.9-22.7,35.5-22.9,36c-0.2,0.5-0.3,0.6-0.1,0.7
	c0.2,0.1,0.3-0.2,0.6-0.8c0.3-0.5,8.2-17.8,25.3-31.8c17.1-14.1,45.7-30.2,87.3-30.2c35.5,0,61.1,12.6,72.9,19.7
	c11.7,7,19.2,14,20.8,15.5c0.9,0.9,1.4,1.3,1.7,1.5C246,250.8,246.1,250.8,246.2,250.7"/>
<path id="Fill-3" class="st0" d="M27.1,317.2c0.1,0,0.2,0,0.2,0.1c0.1,0.2,0,0.6,0,1.6c0,0.7-0.9,21.4,9.7,43.2
	C47.8,384.5,67,408,97.7,423.4c29.2,14.6,57.6,16.7,78.9,14.4c20.5-2.3,36.3-10,38.1-10.7c0.7-0.3,0.8-0.5,0.9-0.3c0,0,0,0.1,0,0.1
	c-0.1,0.1-0.3,0.3-0.7,0.7c-0.6,0.5-1.5,1.3-2.8,2.2c-2.4,1.8-7.2,6.2-23.3,13c-23.1,9.8-61.8,16-100.4-5
	c-37.1-20.1-53.7-54.8-59.3-81.3c-4.2-20-2.4-36.8-2.4-38.1c0-0.5,0-0.8,0.1-0.9C26.9,317.3,27,317.2,27.1,317.2"/>
<path id="Fill-4" class="st0" d="M436.7,355.1c0.3,0,0.7,0,1,0l7.9,0.7c9.8,0.7,10.2,2.1,10.2,4.5c0,3.1-4.2,5.1-10.6,5.1
	c-9,0-10.9-2.2-10.9-5.5C434.4,358.1,435.2,356.5,436.7,355.1z M444.8,311.5c5.2,0,6.3,4.7,6.3,8.6c0,5.5-2.3,8.7-6.3,8.7
	c-5.4,0-6.3-5.5-6.3-8.7C438.6,316.9,439.4,311.5,444.8,311.5z M420.3,362.3c0,8.6,7,11.9,22.9,11.9c16.6,0,27.3-6.1,27.3-16.3
	c0-10.1-6.2-14.1-22.2-15.1l-6.8-0.3c-3.9-0.4-4.1-1.3-4.1-2.2c0-0.3,0.1-0.9,0.9-1.6c2,0.5,4.2,0.7,6.5,0.7
	c13.1,0,21.2-7.6,21.2-19.7c0-1.9-0.3-3.8-0.9-5.8c2.7-0.5,5-0.5,6.2-0.5h0.8v-13.7l-0.9,0.1c-3.8,0.4-8.4,2.4-11.4,5
	c-3.6-3.2-8.8-4.9-15-4.9c-13.1,0-21.6,7.8-21.6,19.8c0,6.3,2.5,11.7,7,15.3c-3.7,2.7-6.1,6.5-6.1,10c0,2.7,1.2,5,3.4,6.7
	C422.6,354.5,420.3,358,420.3,362.3z M269.7,406h-23.4v-27.9h-16.6v73.3h16.6V420h23.4v31.4h16.6v-73.3h-16.6V406z M398.7,451.4
	h16.2v-68l-16.2,2.2V451.4z M373,435.5c-2.7,2.4-5.5,3.7-8.4,3.7c-2.6,0-4.1-1.6-4.1-4.4c0-3.1,1.4-6.9,12.5-9.5V435.5z
	 M388.7,437.8v-23.3c0-12.4-5.5-18.2-17.4-18.2c-9.4,0-17.8,3-24.3,8.7l-0.6,0.5l7.5,9.9l0.6-0.5c2.8-2.1,8.4-5.5,14-5.5
	c3.2,0,4.5,1.5,4.5,5.2v1.5c-19,3.6-28.2,10.6-28.2,21.5c0,9.2,5,14.5,13.6,14.5c5.9,0,10.7-2.1,14.7-6.3c0.2,2.3,0.6,3.9,0.9,5.2
	l0.2,0.6h16.1l-0.4-1.1C389,447.9,388.7,444.4,388.7,437.8z M344,339.3c-2.6,2.4-5.5,3.7-8.4,3.7c-2.6,0-4.1-1.6-4.1-4.4
	c0-3.1,1.5-6.9,12.5-9.5V339.3z M345.2,355.1h16.1L361,354c-0.9-2.4-1.2-5.9-1.2-12.5v-23.3c0-12.4-5.5-18.2-17.4-18.2
	c-9.4,0-17.8,3-24.3,8.7l-0.6,0.5l7.5,9.9l0.7-0.5c2.8-2.1,8.4-5.5,14-5.5c3.2,0,4.5,1.5,4.5,5.2v1.5c-19,3.6-28.2,10.6-28.2,21.5
	c0,9.2,5,14.5,13.6,14.5c5.9,0,10.7-2.1,14.7-6.3c0.2,2.3,0.6,3.9,0.9,5.2L345.2,355.1z M401.4,299.9c-6.4,0-11.6,3.4-14.8,6.9V301
	h-16.2v54.1h16.2v-37c3.1-2.8,5.9-4.3,8.3-4.3c2,0,3.9,0.6,3.9,5.3v35.9h16.1v-40.6C414.9,305,410.2,299.9,401.4,299.9z
	 M444.6,379.4l-16.1,2.1v15.7h-7.5v12.4h7.5v27.8c0,10.7,4.4,14.5,16.8,14.5c3.3,0,8.1-0.4,9.3-0.7l0.6-0.2v-12.3l-1.1,0.5
	c-0.5,0.2-2.6,0.5-4,0.5c-4.4,0-5.4-1.1-5.4-6v-24.2h11.2v-12.4h-11.2V379.4z M560.4,299.9c-6.4,0-11.6,3.4-14.8,6.9V301h-16.2v54.1
	h16.2v-37c3.1-2.8,5.9-4.3,8.3-4.3c2,0,3.9,0.6,3.9,5.3v35.9h16.1v-40.6C573.9,305,569.2,299.9,560.4,299.9z M604.4,312.7
	c1.5,0,6.1,0,7,9.9H597C597.8,316.2,600.4,312.7,604.4,312.7z M616.5,336.5l-0.5,0.8c-1.9,3.1-5.8,6.4-10.6,6.4
	c-5.2,0-8-3.7-8.6-11.3h29.4V329c0-18.5-8-29-21.9-29c-10.8,0-23.4,7.4-23.4,28.2c0,17.6,8.9,28.1,23.8,28.1c9.1,0,16-3.7,21.1-11.2
	l0.4-0.6L616.5,336.5z M494,396.2c-6.4,0-11.6,3.4-14.8,6.9v-28.3L463,377v74.4h16.2v-36.9c3.1-2.8,5.9-4.3,8.3-4.3
	c2,0,3.9,0.6,3.9,5.3v35.9h16.1v-40.6C507.5,401.3,502.9,396.2,494,396.2z M497.8,343.4c-3.3,0-7.7-1.6-7.7-15.3
	c0-10.4,2.4-15,7.7-15c3.3,0,7.7,1.6,7.7,15C505.5,338.7,503.2,343.4,497.8,343.4z M497.8,299.9c-6.7,0-12.5,2.3-16.6,6.5
	c-4.8,5-7.3,12.2-7.3,21.6c0,20.7,12.4,28.1,23.9,28.1c11.6,0,23.9-7.4,23.9-28.1c0-9.4-2.5-16.7-7.3-21.6
	C510.2,302.2,504.5,299.9,497.8,299.9z M317.5,409c1.5,0,6.1,0,7,9.9h-14.3C310.9,412.5,313.5,409,317.5,409z M329.2,433.6
	c-1.9,3.1-5.8,6.4-10.6,6.4c-5.2,0-8-3.7-8.6-11.2h29.4v-3.5c0-18.5-8-29-21.9-29c-10.8,0-23.4,7.4-23.4,28.2
	c0,17.6,8.9,28.1,23.8,28.1c9.1,0,16-3.7,21.1-11.2l0.4-0.6l-9.8-7.8L329.2,433.6z M246.3,329v-48.3h-15.9v47.6
	c0,9.8-2.8,13.7-9.5,13.7c-6.8,0-9.5-3.9-9.5-13.8v-47.5h-16.6v48.4c0,18,8.7,27.2,25.9,27.2C238,356.3,246.3,347.3,246.3,329z
	 M111.4,323.4c-5.3-10.5-21.8-40.9-22.6-42.3l-0.2-0.4H71.9v74.4h15.2v-43.9c5.4,10.3,23.3,42,24.2,43.5l0.2,0.4h15.2v-74.4h-15.2
	V323.4z M309,341.2h-22.4v-60.5h-16.6v74.4h39V341.2z M169.3,355.1v-29.3l21-45.2h-16.4l-12.5,29.6l-12.5-29.6h-17.1l20.9,45.3v29.2
	H169.3L169.3,355.1z"/>
</svg>
